<?xml version="1.0" ?>
<svg id="Layer_2" style="enable-background:new 0 0 32 32;" version="1.1" viewBox="0 0 32 32" xml:space="preserve" xmlns="http://www.w3.org/2000/svg" xmlns:xlink="http://www.w3.org/1999/xlink">
  <g>
    <path d="M16,0.5c-0.82813,0-1.5,0.67139-1.5,1.5v16.09082l-3.51465-3.51465c-1.4129-1.36987-3.4942,0.70264-2.12103,2.12109   c-0.00006,0,6.07513,6.0752,6.07513,6.0752c0.5672,0.58856,1.55334,0.5694,2.12109-0.00006   c0,0.00006,6.0752-6.07513,6.0752-6.07513c1.36865-1.41602-0.70148-3.49274-2.12115-2.12103   C21.01465,14.57617,17.5,18.09082,17.5,18.09082V2C17.5,1.17139,16.82813,0.5,16,0.5z"/><path d="M3.84961,20.21191c-0.82813,0-1.5,0.67139-1.5,1.5v2.21289c0,4.17676,3.39844,7.5752,7.5752,7.5752H22.0752   c4.17676,0,7.5752-3.39844,7.5752-7.5752v-2.21289c0-0.82861-0.67188-1.5-1.5-1.5s-1.5,0.67139-1.5,1.5v2.21289   c0,2.52295-2.05273,4.5752-4.5752,4.5752H9.9248c-2.52246,0-4.5752-2.05225-4.5752-4.5752v-2.21289   C5.34961,20.8833,4.67773,20.21191,3.84961,20.21191z" />
  </g>
</svg>
